<svg id="visual" viewBox="0 0 900 600" width="900" height="600" xmlns="http://www.w3.org/2000/svg" xmlns:xlink="http://www.w3.org/1999/xlink" version="1.1"><rect width="900" height="600" fill="#ffffff"></rect><g><g transform="translate(543 440)"><path d="M33 -39.9C43.7 -30.4 53.9 -20.9 53.4 -11.2C53 -1.6 42 8.2 35.3 21.1C28.7 34 26.4 50.1 18.8 53.7C11.3 57.3 -1.5 48.3 -15 42.8C-28.6 37.2 -42.8 35.1 -51.2 26.6C-59.6 18.2 -62 3.4 -59.3 -10.2C-56.7 -23.9 -48.8 -36.3 -38.1 -45.8C-27.3 -55.3 -13.7 -61.7 -1.2 -60.2C11.2 -58.8 22.4 -49.4 33 -39.9Z" fill="#ff0000"></path></g><g transform="translate(229 231)"><path d="M6.8 -8.4C8.8 -6.5 10.3 -4.3 11.9 -1.2C13.5 1.9 15.2 5.8 14.1 8.5C13 11.1 9 12.4 5.2 13.3C1.5 14.2 -2 14.7 -5.6 14C-9.2 13.3 -12.8 11.4 -15 8.3C-17.1 5.3 -17.8 1 -16.6 -2.4C-15.3 -5.8 -12.2 -8.3 -9.1 -10C-6.1 -11.7 -3 -12.7 -0.3 -12.3C2.4 -12 4.9 -10.4 6.8 -8.4Z" fill="#ff0000"></path></g><g transform="translate(77 477)"><path d="M9.2 -10.4C11.6 -8.9 13 -5.7 13 -2.7C13 0.3 11.6 3.1 10 5.6C8.4 8.2 6.5 10.4 3.6 12.7C0.7 15 -3.2 17.4 -7 17C-10.8 16.6 -14.5 13.6 -16.6 9.7C-18.6 5.9 -19 1.2 -17.8 -2.7C-16.7 -6.7 -13.9 -10 -10.6 -11.3C-7.4 -12.7 -3.7 -12.2 -0.2 -12C3.4 -11.8 6.8 -11.9 9.2 -10.4Z" fill="#ff0000"></path></g><g transform="translate(54 211)"><path d="M22.8 -25.9C31.3 -20 41.2 -14.5 41.6 -8C42.1 -1.4 33.1 6.3 27.4 15.5C21.6 24.7 19.2 35.5 13.4 38.2C7.6 40.9 -1.7 35.5 -11.6 31.9C-21.6 28.3 -32.2 26.5 -35 20.7C-37.8 14.9 -32.7 5 -29.1 -3.3C-25.5 -11.7 -23.3 -18.5 -18.7 -25C-14.1 -31.4 -7.1 -37.7 0 -37.7C7.2 -37.8 14.3 -31.7 22.8 -25.9Z" fill="#ff0000"></path></g><g transform="translate(450 165)"><path d="M19.5 -22.9C25.3 -18.5 29.9 -12.3 32.7 -4.6C35.4 3.1 36.3 12.3 33.7 21.9C31 31.4 24.8 41.3 16.3 44.2C7.7 47.1 -3.2 42.9 -11 37.1C-18.7 31.2 -23.4 23.7 -29.9 15.7C-36.3 7.7 -44.6 -0.8 -45.7 -10.4C-46.8 -19.9 -40.7 -30.5 -31.8 -34.5C-23 -38.4 -11.5 -35.7 -2.3 -32.9C6.9 -30.2 13.8 -27.4 19.5 -22.9Z" fill="#ff0000"></path></g><g transform="translate(677 243)"><path d="M11.1 -13.2C14.2 -10.6 16.5 -6.9 17.4 -2.9C18.4 1.2 18 5.7 15.6 8.1C13.1 10.4 8.5 10.7 4.8 11.2C1 11.8 -2 12.6 -5.5 12.5C-9 12.3 -13.1 11.1 -14.9 8.4C-16.6 5.7 -16 1.5 -14.6 -1.9C-13.2 -5.3 -11 -8 -8.5 -10.7C-5.9 -13.4 -3 -16.1 0.5 -16.7C4 -17.3 7.9 -15.8 11.1 -13.2Z" fill="#ff0000"></path></g><g transform="translate(835 86)"><path d="M24.5 -31C31.7 -23.2 37.3 -15.4 37.7 -7.5C38.1 0.4 33.3 8.5 28.9 17.3C24.5 26 20.5 35.6 13.2 39.7C6 43.7 -4.4 42.3 -14 38.7C-23.6 35.2 -32.4 29.4 -35.7 21.6C-39.1 13.8 -37.1 3.8 -33.8 -4.5C-30.6 -12.7 -26.1 -19.3 -20.3 -27.2C-14.4 -35.2 -7.2 -44.6 0.7 -45.5C8.7 -46.3 17.4 -38.7 24.5 -31Z" fill="#ff0000"></path></g><g transform="translate(326 572)"><path d="M23.4 -27.1C30.4 -22 36.3 -14.7 37.4 -6.9C38.4 1 34.7 9.4 29.4 15.4C24.1 21.3 17.1 24.7 9.4 28.8C1.6 33 -7 37.9 -16.7 37.8C-26.4 37.8 -37.2 32.7 -43.6 24C-50.1 15.3 -52.2 2.9 -48.6 -7.1C-45.1 -17 -35.9 -24.4 -26.8 -29.1C-17.8 -33.8 -8.9 -35.9 -0.3 -35.4C8.2 -35 16.4 -32.2 23.4 -27.1Z" fill="#ff0000"></path></g><g transform="translate(246 67)"><path d="M10.4 -13.1C13.3 -10 15.2 -6.5 16.2 -2.6C17.1 1.2 17 5.5 15.2 8.8C13.3 12.1 9.7 14.5 6 15.2C2.4 16 -1.4 15.1 -5.9 14.3C-10.4 13.5 -15.5 12.7 -17.1 9.9C-18.7 7.1 -16.6 2.3 -15 -1.9C-13.4 -6.1 -12.3 -9.7 -9.8 -12.8C-7.4 -16 -3.7 -18.7 0 -18.7C3.8 -18.7 7.5 -16.1 10.4 -13.1Z" fill="#ff0000"></path></g><g transform="translate(20 8)"><path d="M37.5 -40C48.5 -35.5 57.2 -23.6 57.6 -11.6C58 0.3 50 12.3 42.5 23.9C35.1 35.5 28.1 46.8 18.2 50.7C8.3 54.6 -4.5 51.1 -17.5 46.9C-30.4 42.6 -43.4 37.6 -47 28.5C-50.5 19.5 -44.5 6.3 -40.1 -5C-35.6 -16.3 -32.6 -25.8 -26.2 -31.1C-19.8 -36.4 -9.9 -37.5 1.7 -39.5C13.3 -41.5 26.5 -44.5 37.5 -40Z" fill="#ff0000"></path></g></g></svg>